name tmp\angles_triclong1.mot
datacolumns 15
datarows 40
range 0.500000 0.514750
endheader
time  THx THy THz SCy SCz SCx ACy ACz ACx GHy GHz GHyy ELx PSy
0.500000	0.000000	0.000000	0.000000	-31.394043	10.740031	8.496593	57.475874	-1.927052	-2.271968	137.738038	4.357563	165.222886	72.500000	0.000000	
0.500378	0.000000	0.000000	0.000000	-31.059651	10.660888	9.843140	57.869041	-2.828021	-2.829734	117.890566	3.320295	-177.620396	72.500000	0.000000	
0.500756	0.000000	0.000000	0.000000	-28.789467	9.929446	8.769640	59.435028	-1.841513	-2.498812	60.376320	8.440028	-32.173335	72.500000	0.000000	
0.501135	0.000000	0.000000	0.000000	-30.227228	10.610646	10.678609	59.913914	-1.815110	-1.825187	41.417530	8.697535	-13.334106	72.500000	0.000000	
0.501513	0.000000	0.000000	0.000000	-32.891551	11.872014	16.893951	60.670907	-4.117517	-1.796917	9.627562	10.873090	15.446682	72.500000	0.000000	
0.501891	0.000000	0.000000	0.000000	-38.993282	14.912540	26.159069	63.147972	-3.957315	2.560434	-14.057283	24.943654	30.753190	72.500000	0.000000	
0.502269	0.000000	0.000000	0.000000	-46.807863	18.861842	42.719062	65.206187	-7.510325	7.815892	-16.253440	45.234904	22.038024	72.500000	0.000000	
0.502648	0.000000	0.000000	0.000000	-40.861001	16.019933	33.525054	64.638635	-6.624779	3.738077	0.239307	33.124226	8.470719	72.500000	0.000000	
0.503026	0.000000	0.000000	0.000000	-34.141889	12.723558	19.806058	62.728641	-3.219316	0.377173	21.069096	20.470553	-4.650539	72.500000	0.000000	
0.503404	0.000000	0.000000	0.000000	-28.560042	10.098833	10.168546	61.235922	-1.137432	-1.558314	53.869303	16.346302	-28.667363	72.500000	0.000000	
0.503782	0.000000	0.000000	0.000000	-26.840908	9.325806	9.954382	60.904993	-2.640078	-3.136978	63.303145	16.422890	-35.757425	72.500000	0.000000	
0.504160	0.000000	0.000000	0.000000	-31.886328	11.619812	16.884765	61.861065	-3.563439	-1.262692	32.015795	17.045609	-8.198427	72.500000	0.000000	
0.504539	0.000000	0.000000	0.000000	-40.195984	15.625396	30.517294	64.150244	-5.322585	3.440554	-4.660596	30.178344	18.221899	72.500000	0.000000	
0.504917	0.000000	0.000000	0.000000	-47.038502	19.056930	43.699377	65.618358	-7.454072	8.607503	-9.698994	46.791724	13.269741	72.500000	0.000000	
0.505295	0.000000	0.000000	0.000000	-44.786384	17.926076	39.205082	65.281791	-6.635771	6.876779	-8.830394	41.266974	13.945812	72.500000	0.000000	
0.505673	0.000000	0.000000	0.000000	-37.713468	14.418831	26.820146	63.515586	-5.209941	1.652168	3.073212	25.299087	9.709394	72.500000	0.000000	
0.506051	0.000000	0.000000	0.000000	-31.490671	10.789143	8.503754	57.532438	-1.795460	-2.144594	138.456507	4.040879	-132.159025	72.500000	0.000000	
0.506430	0.000000	0.000000	0.000000	-30.223184	10.770915	13.561716	60.962956	-3.063910	-2.095079	41.111531	13.703696	-46.136165	72.500000	0.000000	
0.506808	0.000000	0.000000	0.000000	-40.147053	15.582435	30.348769	64.025402	-5.381526	3.268397	-6.380685	29.663743	-4.555005	72.500000	0.000000	
0.507186	0.000000	0.000000	0.000000	-48.853319	19.888566	44.419204	65.542806	-6.075230	10.394031	-16.308840	50.386599	-3.814459	72.500000	0.000000	
0.507564	0.000000	0.000000	0.000000	-33.065639	12.129891	18.920127	61.856515	-4.347735	-1.188344	21.308650	16.574962	-27.528474	72.500000	0.000000	
0.507943	0.000000	0.000000	0.000000	-26.686928	9.097013	8.199897	59.797097	-2.510925	-3.488601	68.479469	11.955893	-69.221385	72.500000	0.000000	
0.508321	0.000000	0.000000	0.000000	-30.626073	10.906495	13.953613	60.713878	-3.363598	-2.220032	36.692076	12.199043	-36.231446	72.500000	0.000000	
0.508699	0.000000	0.000000	0.000000	-39.848317	15.417476	29.664245	63.842292	-5.304728	2.973240	-7.479642	28.618902	3.469463	72.500000	0.000000	
0.509077	0.000000	0.000000	0.000000	-47.845286	19.401825	44.530657	65.442180	-7.499860	8.926364	-14.756213	48.048542	6.100062	72.500000	0.000000	
0.509455	0.000000	0.000000	0.000000	-46.456059	18.701596	40.579728	65.313005	-5.951273	8.322958	-14.814176	44.533013	4.078209	72.500000	0.000000	
0.509834	0.000000	0.000000	0.000000	-37.986748	14.535554	24.774757	63.569810	-3.150484	2.796556	0.578977	25.399626	-8.526247	72.500000	0.000000	
0.510212	0.000000	0.000000	0.000000	-26.647447	8.971072	6.091263	59.075817	-1.584497	-3.155304	78.250789	9.727738	-74.802637	72.500000	0.000000	
0.510590	0.000000	0.000000	0.000000	-27.806413	9.499149	8.739133	59.316792	-2.678817	-3.355011	68.401434	9.249665	-62.773611	72.500000	0.000000	
0.510968	0.000000	0.000000	0.000000	-31.718378	10.904879	8.823045	57.660030	-1.740509	-2.005917	140.668591	3.298234	-159.065703	72.500000	0.000000	
0.511346	0.000000	0.000000	0.000000	-30.494364	10.760838	12.316372	60.136747	-2.738148	-2.168822	37.523096	9.523668	-66.397135	72.500000	0.000000	
0.511725	0.000000	0.000000	0.000000	-40.634263	15.820269	30.953256	64.148321	-5.285429	3.690735	-7.598774	30.709799	-24.887959	72.500000	0.000000	
0.512103	0.000000	0.000000	0.000000	-39.978401	15.681970	31.028082	65.049606	-4.816673	4.429886	10.770288	33.825268	-42.635083	72.500000	0.000000	
0.512481	0.000000	0.000000	0.000000	-30.515862	10.956307	14.810122	61.353723	-3.454125	-2.009712	40.282515	15.449384	-66.989889	72.500000	0.000000	
0.512859	0.000000	0.000000	0.000000	-32.837585	11.988692	17.933625	61.589184	-4.000352	-1.256801	20.558213	15.262110	-47.100545	72.500000	0.000000	
0.513238	0.000000	0.000000	0.000000	-42.512457	16.848142	35.560720	65.119805	-6.112510	5.448658	-1.576227	36.988984	-31.239528	72.500000	0.000000	
0.513616	0.000000	0.000000	0.000000	-41.543042	16.456926	33.622944	65.431936	-5.008417	5.669431	7.808156	37.029642	-40.320775	72.500000	0.000000	
0.513994	0.000000	0.000000	0.000000	-33.298682	12.327448	18.600192	62.527048	-3.119840	-0.064110	26.026483	19.686870	-54.461100	72.500000	0.000000	
0.514372	0.000000	0.000000	0.000000	-32.856779	11.766820	13.271806	60.148826	-1.695303	-0.715417	2.675576	8.168016	-57.249793	72.500000	0.000000	
0.514750	0.000000	0.000000	0.000000	-41.798017	16.352542	31.002624	64.258976	-4.072738	4.979274	-13.705893	32.635300	-39.172463	72.500000	0.000000	
